<?xml version="1.0" encoding="UTF-8"?>
<svg viewBox="0 0 640 480" xmlns="http://www.w3.org/2000/svg">
 <g stroke="#fff" stroke-width="7">
  <path d="m309.3 67.65l-81.174-22.938c-23.296 74.852-52.698 131.09-24.949 217.26-3.019 67.779-24.779 134.83-39.155 135.04-19.078 0.27802-41.546-5.12-40.59 3.872l-0.451 6.899c9.284 7.385 23.45 14.332 51.311 24.058 32.136 6.541 43.117 5.633 57.245 5.833l2.633-7.611c3.493-10.097-8.461-11.674-33.974-23.953-16.414-7.899 3.346-85.892 31.178-140.74 60.91-56.305 63.298-141.28 77.926-197.72z"/>
  <path d="m400 24.279l-87.059 22.063c18.367 81.422 21.195 148.93 92.654 213.61 33.299 64.102 48.932 137.52 35.787 145.36-17.443 10.412-41.034 17.397-35.365 25.179l3.258 6.602c12.49 1.866 29.252 0.73099 60.119-5.134 33.114-11.076 42.756-17.759 55.889-25.095l-1.623-8.42c-2.154-11.17-14.017-6.26-44.08-4-19.34 1.454-42.639-80.98-46.177-146.37 26.19-84.345-16.845-163.97-33.403-223.8v-9.9e-5z"/>
 </g>
</svg>
