<?xml version="1.0" encoding="UTF-8"?>
<svg enable-background="new 0 0 276.318 160.123" viewBox="0 0 276.318 160.123" xmlns="http://www.w3.org/2000/svg">
 <path d="m198.326,129.575c-25.423,3.657-52.225,7.534-80.99,4.999-8.949,12.43-12.249,28.197-28.997,23.997-12.695-3.184-6.833-14.337-11.999-27.997-2.117-5.597-10.978-8.782-16.998-13.998-9.137-7.917-13.975-17.384-22.998-19.997-9.935-2.878-20.184.82-29.996-2-.17-10.143-12.77-31.266-2-36.995 7.453-3.965 10.854,6.194 17.998,5.999 8.978-.245 20.153-18.955 26.997-22.997 7.793-4.603 17.542-4.249 17.998-12.999 .538-10.305-15.54-11.016-13.997-20.997 1.685-10.898 24.391-5.857 30.996-2 9.808,5.727 9.494,13.983 20.998,15.998 16.505,2.891 41.039-4.952 59.993-5 30.968-.078 69.697,4.414 86.989,23.997 6.609,7.486 4.314,10.983 10.998,21.997 3.292,5.424 13.149,8.196 12.999,17.998-.132,8.541-8.725,8.324-12.999,14.998-4.904,7.659-6.402,24.527-10.998,35.995-4.812,12.007-10.156,25.05-18.998,27.997-22.104,7.368-23.242-13.022-34.996-28.995zm67.991-46.994h4.999c-.826-2.826 1.409-2.591 1-5-1.695-1.637-2.483-4.182-5.999-3.999v8.999z" fill-rule="evenodd"/>
</svg>
