<?xml version="1.0" encoding="UTF-8"?>
<svg enable-background="new 0 0 360 237" version="1.1" viewBox="0 0 360 237" xmlns="http://www.w3.org/2000/svg">
 <path d="m172.5 47.109c-5.227-0.874-10.456-1.751-16.124-2.7 0.452-1.778 0.854-2.887 1.005-4.03 0.844-6.379-1.41-8.441-7.53-6.327-3.167 1.091-5.989 3.19-9.519 5.14-1.662-1.464-3.739-3.642-6.157-5.337-3.991-2.801-7.646-1.318-7.419 3.343 0.39 8.042-2.504 16.464 2.461 24.128 0.598 0.923-0.338 2.839-0.564 4.292-4.521-6.267-9.892-7.003-16.729-0.967-0.65-4.273-1.279-7.149-1.479-10.059-0.205-2.961-0.616-5.546-4.196-5.998-3.742-0.475-5.849 1.849-6.792 4.878-0.768 2.473-0.547 5.255-0.752 7.754-10.449 2.159-10.857 4.348-3.649 18.197-4.559 2.14-9.237-0.146-11.479-2.551-7.435-7.97-15.603-15.448-20.647-25.491-2.266-4.508-5.117-9.031-8.714-12.497-6.357-6.122-13.45-11.489-20.322-17.065-1.88-1.527-3.959-2.902-6.135-3.959-7.696-3.739-11.804-3.018-17.167 2.73-6.504 6.966-7.102 11.041-2.537 18.772 1.23 2.088 2.797 3.982 4.245 5.939 9.468 12.819 21.728 21.928 36.46 27.938 3.149 1.285 5.851 3.664 8.757 5.539 0.312 0.949 0.624 1.901 0.938 2.854-11.766-3.814-10.134 8.018-17.118 10.308 1.793 2.136 3.055 3.642 4.418 5.266-6.079 6.114-8.898 12.606-5.166 20.812 0.973 2.137 0.859 4.766 1.238 7.171 3.907 24.748 16.229 44.802 33.902 62.14 12.6 12.359 26.897 21.809 43.352 28.027 8.791 3.324 17.424 7.776 26.539 9.359 14.352 2.495 29.053 2.566 43.655 1.054 13.453-1.394 26.615-3.519 37.574-12.531 1.781-1.468 4.302-2.08 6.532-2.954 16.053-6.264 29.323-16.352 39.703-29.966 4.934-6.473 8.96-13.678 13.027-20.763 8.102-14.115 14.159-29.051 15.582-45.417 0.489-5.622-0.433-11.366-0.694-16.733 8.725-5.946 8.725-5.946 7.302-13.704-3.361 0.84-6.655 1.658-10.163 2.532-4.688-6.174-5.435-5.946-13.038 4.576 10.229 0.142 10.936 0.855 10.271 10.883-3.69 1.274-7.56 2.611-11.085 3.829-6.118-4.531 0.321-11.586-4.766-15.62 8.62-10.484 17.337-19.583 29.756-24.476 13.188-5.195 24.901-12.539 33.036-24.71 3.769-5.644 4.071-11.945 0.079-16.774-3.303-3.997-9.088-5.333-15.026-2.125-7.731 4.172-15.684 8.445-22.216 14.182-7.007 6.155-12.143 14.388-18.697 21.133-9.308 9.58-19.168 18.63-28.797 27.908l0.06 0.25c-0.844-3.13-1.912-6.227-2.45-9.409-0.365-2.185 3.653-4.385-0.646-6.928-1.692-1.001-0.807-5.767-2.462-7.548-2.917-3.134-1.21-5.281 0.09-7.918 0.299-0.601 0.045-1.475 0.045-2.741-2.936 0.758-5.382 1.39-6.521 1.685-2.85-3.698-5.214-6.764-7.439-9.655-8.154 3.208-9.099 8.333-7.321 15.187-0.881-1.546-1.771-3.092-2.252-3.937-4.673 0-8.837-0.045-13.002 0.011-6.229 0.082-8.964 2.988-9.688 10.338 3.873-0.269 7.336-5.031 11.52-1.162v9.618c-5.58 4.333-12.371-3.171-18.201 1.812-1.445-9.147-1.445-9.147-11.381-8.12 3.463-4.519 6.447-8.422 9.883-12.912-4.033-1.621-6.267-3.384-5.292-7.665 0.579-2.543-0.616-5.486-1.277-10.103-6.826 5.448-14.884 4.384-18.821 11.267z" fill="none"/>
 <path d="m257.66 85.038c9.629-9.278 19.489-18.328 28.797-27.908 6.555-6.745 11.69-14.978 18.697-21.133 6.532-5.737 14.484-10.01 22.216-14.182 5.938-3.208 11.724-1.871 15.026 2.125 3.992 4.829 3.689 11.13-0.079 16.774-8.135 12.172-19.848 19.515-33.036 24.71-12.419 4.893-21.136 13.991-29.756 24.476 5.087 4.034-1.353 11.089 4.766 15.62 3.525-1.218 7.395-2.555 11.085-3.829 0.665-10.028-0.041-10.742-10.271-10.883 7.604-10.521 8.351-10.75 13.038-4.576 3.508-0.874 6.802-1.692 10.163-2.532 1.423 7.757 1.423 7.757-7.302 13.704 0.262 5.367 1.184 11.111 0.694 16.733-1.423 16.367-7.48 31.302-15.582 45.417-4.067 7.085-8.094 14.29-13.027 20.763-10.38 13.614-23.65 23.702-39.703 29.966-2.23 0.874-4.751 1.486-6.532 2.954-10.959 9.013-24.121 11.138-37.574 12.531-14.602 1.513-29.303 1.441-43.655-1.054-9.115-1.583-17.749-6.035-26.539-9.359-16.455-6.219-30.752-15.668-43.352-28.027-17.674-17.338-29.996-37.392-33.902-62.14-0.379-2.405-0.265-5.034-1.238-7.171-3.733-8.206-0.913-14.697 5.166-20.812-1.363-1.625-2.625-3.13-4.418-5.266 6.984-2.29 5.353-14.122 17.118-10.309-0.314-0.952-0.625-1.905-0.938-2.854-2.906-1.875-5.608-4.254-8.757-5.539-14.733-6.008-26.993-15.117-36.462-27.936-1.447-1.957-3.014-3.851-4.245-5.939-4.564-7.731-3.967-11.806 2.536-18.775 5.363-5.748 9.472-6.469 17.167-2.73 2.176 1.057 4.254 2.432 6.135 3.959 6.873 5.577 13.965 10.944 20.322 17.065 3.597 3.466 6.448 7.989 8.714 12.497 5.044 10.043 13.212 17.521 20.647 25.491 2.243 2.405 6.921 4.691 11.479 2.551-7.208-13.849-6.8-16.038 3.649-18.197 0.206-2.499-0.015-5.281 0.752-7.754 0.943-3.029 3.05-5.353 6.792-4.878 3.58 0.452 3.991 3.037 4.196 5.998 0.2 2.91 0.829 5.786 1.479 10.059 6.837-6.036 12.208-5.3 16.729 0.967l-0.257-0.295c-2.088 1.923-3.292 5.053-6.777 5.315-0.463-2.54-0.865-4.74-1.427-7.821-3.524 2.701-6.271 4.803-10.4 7.967-1.623-6.914-2.945-12.542-4.407-18.772-4.553 2.663-1.464 7.164-3.171 9.961-1.703 2.79-3.897 5.277-6.311 8.471 3.888 5.442 3.042 11.706-0.829 17.532 2.48 3.036 4.59 5.621 6.568 8.041 3.498-0.915 6.766-1.77 9.901-2.588 0.622-2.943 1.281-6.059 1.958-9.248h-6.848c0.836-2.256 1.821-3.78 1.866-5.326 0.048-1.669-0.785-3.361-1.235-5.042 0.497-0.18 0.992-0.359 1.489-0.538 1.669 2.233 3.337 4.467 5.102 6.828 1.291-1.583 2.176-2.667 4.409-5.408-0.399 6.185-0.659 10.196-0.938 14.506 6.52 0.482 12.335 0.912 18.501 1.371 0.254-1.658 0.635-4.124 1.15-7.481 7.158 4.314 11.924-0.717 16.882-3.145 5.203-2.547 9.341-6.917 8.228-14.425 6.34 4.333 5.542-3.193 8.736-3.667l-0.302-0.105c-0.226 2.85-0.452 5.7-0.67 8.46 5.914-1.203 5.914-1.203 10.591 0.213-6.955 4.012-17.155 1.072-21.689 12.016 4.299-1.166 7.349-2.088 10.447-2.801 1.687-0.385 4.245-1.244 5.052-0.471 4.118 3.944 8.645 3.048 13.542 2.458 7.447-0.9 8.729-2.696 6.185-10.484-14.069-1.128-10.398-5.08-5.953-12.587v-17.327c-4.46 6.824-10.165 5.7-15.526 5.901l-0.017-0.015c3.937-6.883 11.995-5.819 18.819-11.269 0.661 4.617 1.856 7.56 1.277 10.103-0.975 4.28 1.259 6.043 5.292 7.665-3.436 4.489-6.42 8.393-9.883 12.912 9.936-1.027 9.936-1.027 11.381 8.12 5.83-4.982 12.621 2.521 18.201-1.812v-9.618c-4.184-3.87-7.646 0.893-11.52 1.162 0.725-7.351 3.459-10.256 9.688-10.338 4.165-0.056 8.329-0.011 13.002-0.011 0.481 0.844 1.371 2.391 2.252 3.937-1.777-6.854-0.833-11.978 7.321-15.187 2.226 2.891 4.59 5.958 7.439 9.655 1.14-0.295 3.586-0.926 6.521-1.685 0 1.266 0.254 2.14-0.045 2.741-1.3 2.637-3.007 4.785-0.09 7.918 1.655 1.782 0.77 6.547 2.462 7.548 4.299 2.543 0.28 4.743 0.646 6.928 0.538 3.182 1.606 6.279 2.432 9.368-1.221-1.711-2.432-3.376-3.754-5.207-1.986 1.621-4.123 4.586-5.497 4.269-6.245-1.438-10.1 2.603-13.805 5.24-2.708-1.397-4.96-3.589-6.753-3.265-3.754 0.68-1.158 3.821-1.259 5.972-0.078 1.647-0.526 3.276-1.02 6.107 5.345-0.523 10.294 0.164 14.051-1.64 6.397-3.072 12.036-7.706 17.997-11.684zm-215.41-39.308c-0.605-0.074-1.197-0.209-1.774-0.399-2.073 1.273-4.146 2.547-6.219 3.821-1.873-2.611-3.845-4.799-7.054-1.628-0.374-6.196-2.859-11.578-6.486-16.968 5.07 0.982 9.638 2.674 14.268 4.187 1.055 0.348 2.553 0.438 3.401-0.082 0.521-0.317 0.686-2.461 0.174-3.033-4.65-5.18-9.76-9.588-17.43-9.21-6.364 0.313-10.06 6.043-6.411 11.108 3.621 5.02 8.372 9.225 12.64 13.771 2.254 2.338 4.194 5.146 6.831 6.917 5.236 3.515 9.831 8.867 17.241 7.462 0.527 0.99 0.809 2.518 1.615 2.88 5.048 2.271 8.714 6.073 12.21 10.174 1.537 1.8 3.318 3.432 5.21 4.848 0.252 0.187 1.806-1.363 2.758-2.11 3.825 6.947 7.446 13.924 14.01 18.993 4.764 3.679 8.674 8.445 13.278 12.359 2.973 2.529 6.29 5.166 11.483 3.522-13.321-13.735-26.093-26.897-38.867-40.063-0.325 0.299-0.65 0.601-0.977 0.9 0.358 0.803 0.715 1.602 1.074 2.405-8.58-5.09-15.322-11.626-17.264-21.942-0.587-1.856 3.912-4.516-1.494-5.853 0.538 2.144 1.008 4.015 1.477 5.883-1.565-0.975-3.13-1.954-4.695-2.932l0.188 0.165c-2.323-3.038-4.754-5.884-9.187-5.175zm288.3-18.857c-4.445-1.621-6.843 1.486-9.465 4.09 0.074 0.313 0.149 0.631 0.228 0.945-2.719 1.031-5.666 1.688-8.108 3.174-4.549 2.771-8.807 6.021-13.188 9.072-2.006 3.104-4.015 6.204-6.021 9.304 4.889-1.591 9.095-3.601 6.01-9.315 1.157 0.291 2.868 1.225 3.391 0.777 4.109-3.534 10.944-1.162 14.189-6.693 0.452-0.769 2.835-0.403 4.321-0.564l0.352 0.022c0.112 0.889 0.649 2.267 0.276 2.584-3.627 3.089-7.343 6.084-11.152 8.942-3.455 2.588-7.06 4.971-10.597 7.447 0.463 0.598 0.923 1.199 1.386 1.8 16.284-5.27 29.872-14.002 38.434-29.633-5.641-4.609-5.641-4.609-10.294-1.789l0.238-0.163zm-62.144 88.691c4.21-1.419 8.415-2.839 11.982-4.045-1.271-7.014-2.315-12.747-3.533-19.452-5.666 5.192-11.052 10.125-16.457 15.075 3.152 3.324 5.644 5.942 8.102 8.527-3.097-0.079-6.188-0.153-9.289-0.232-1.856-0.239-3.72-0.459-5.572-0.728-3.743-0.534-5.805-3.854-4.139-7.082 0.8-1.539 2.301-2.745 3.571-4.011 11.13-11.067 22.405-21.984 33.33-33.245 2.943-3.037 4.837-7.093 7.213-10.675 1.079 0.658 2.162 1.315 4.52 2.749-0.658-2.947-0.982-4.415-1.647-7.403-1.445 2.588-2.092 3.746-2.737 4.904-6.41 3.205-12.527 6.715-17.671 11.933-8.725 8.848-17.801 17.349-26.75 25.973-7.059 6.805-14.159 13.573-20.736 19.874 0.747 5.654 3.062 7.433 7.687 6.368 3.522-0.814 7.336-0.616 10.704-1.782 4.415-1.523 10.581-0.366 12.222-6.895 3.067 0.05 6.134 0.098 9.2 0.147zm-7.582 60.242c-2.897 0.813-6.782-1.251-9.785 3.88 4.183-1.02 6.962-1.699 9.741-2.379-3.399 4.755-6.806 9.51-10.044 14.032-2.021-0.369-4.06-0.747-6.682-1.229 0.862 3.279 1.438 5.464 2.013 7.646-2.614 0.516-5.33 0.739-7.824 1.599-9.129 3.142-18.055 6.954-27.314 9.621-6.928 1.995-14.249 2.614-20.965 3.769 2.38-3.943 3.799-8.022 6.611-10.559 4.206-3.795-0.201-6.663 0.037-9.905 0.022-0.269 0.307-0.519 0.471-0.776l-0.205 0.183c2.812 1.599 5.625 3.197 8.438 4.796-4.168-4.706-4.143-6.118 0.844-8.362 2.249-1.013 4.52-1.977 8.479-3.698-4.213-1.143-6.895-2.524-9.569-2.498-21.588 0.187-43.184 1.191-64.757 0.791-12.086-0.224-24.139-2.596-36.196-4.097-3.212-0.403-6.377-1.169-10.301-1.909-0.276 3.146-0.471 5.345-0.667 7.541-2.592-0.754-5.186-1.505-8.098-2.349-0.177-2.79-0.345-5.416-0.517-8.128-4.637-3.204-11.692-2.117-15.682-8.571 4.549 1.124 8.094 2.002 12.833 3.175-3.533-2.104-7.834-3.881-7.659-4.673 1.931-8.743-5.871-7.552-9.825-10.151-2.25-1.476-4.629-2.753-6.949-4.12 2.224 0.116 4.45 0.354 6.672 0.317 4.542-0.074 9.431 4.587 13.765-1.046-3.033-0.885-5.923-1.729-7.57-2.211-0.658-5.181-1.248-9.823-1.718-13.524-7.898-3.627-14.727-6.764-22.978-10.551 2.719 9.901 4.583 18.697 9.657 26.41 0.297 0.447 1.556 0.265 2.331 0.422 0.594 2.815 0.549 5.99 1.888 8.396 7.899 14.216 19.565 25.189 31.742 35.64 1.365 1.173 3.373 1.595 6.385 2.954-3.216-4.567-5.477-7.783-8.217-11.675 2.23-0.184 3.083-0.254 3.935-0.325 1.821-2.305 3.041-1.013 4.004 0.766 2.31 4.262 3.61 9.58 6.977 12.657 8.043 7.354 16.794 14.171 28.233 15.643 7.246 0.93 14.503 1.92 21.786 2.368 25.4 1.562 50.629 1.046 74.72-8.617 6.024-2.416 12.83-3.656 17.013-9.472 16.012-6.2 24.158-19.896 32.409-33.604-5.764 1.957-11.217 4.239-16.386 7.037-0.945 0.509-0.747 3.134-1.076 4.786zm-48.749-26.47c-1.232-0.143-2.465-0.28-3.697-0.422l0.015 7e-3c1.248-3.765-0.411-5.916-4.056-6.144-4.143-0.258-8.322 7e-3 -12.479 0.164-10.664 0.396-21.321 1.158-31.981 1.188-6.676 0.019-13.354-1.053-20.036-1.595-15.481-1.251-30.969-2.45-46.448-3.735-2.549-0.209-5.068-0.75-7.429-1.112-1.856 4.971 4.648 10.868-3.513 13.382 7.307 9.166 17.076 9.532 26.884 10.025 16.049 0.803 32.093 1.736 48.134 2.704 16.587 1.001 33.077 0.119 51.349-1.995-4.074-3.014-6.831-5.05-9.584-7.089 0.082-0.243 0.161-0.481 0.243-0.725 2.088 0.639 4.18 1.277 6.487 1.983 2.084-2.305 4.071-4.497 6.021-6.742 1.39-1.27 2.775-2.543 4.494-4.119-1.494-1.181-2.955-2.334-4.419-3.492-0.522 0.262-1.05 0.522-1.576 0.784 0.531 2.309 1.061 4.62 1.591 6.933zm-19.698-30.138c5.356-0.751 9.569-1.345 14.286-2.006-1.706 2.473-2.901 4.209-4.201 6.092 3.873-0.209 6.962-0.377 10.055-0.546 0.037 0.531 0.074 1.062 0.115 1.588-2.98 0.747-5.961 1.494-10.607 2.655 14.843 2.614 21.996-4.456 25.186-16.378-4.99-3.933-6.357 2.835-9.831 3.388-2.233-1.983-4.414-3.921-6.26-5.558 4.288-6.342 10.495-11.761 11.508-18.021 1.124-6.958 3.981-7.585 8.759-6.592 4.616 0.956 6.678-1.673 8.672-3.829 1.85-7.216-6.965-10.783-4.093-17.581-3.922-0.321-7.358-0.602-11.104-0.911-1.371 3.5-2.977 7.914-4.811 12.229-2.521 5.935-8.953 3.989-12.964 6.727-1.363-1.647-2.432-2.932-3.526-4.247-2.928 2.402-5.479 4.497-8.094 6.641 0.609 2.304 1.169 4.422 2.08 7.847 2.473-3.16 4.116-5.255 6.877-8.777 0.952 8.303 11.646 5.259 11.601 13.902-2.274 1.509-4.561 3.021-6.847 4.534-0.433-0.448-0.866-0.896-1.299-1.345 0.899-2.297 1.8-4.59 2.782-7.085-4.509-1.636-6.532-0.456-6.914 4.161-0.492 5.983-4.235 8.934-10.241 9.823-0.687-1.89-1.277-3.518-1.845-5.076-3.257 0.292-6.424 0.571-8.811 0.784-1.722 7.272-10.355 12.625-5.637 21.346-3.441 1.435-6.065 2.524-10.566 4.399h33.432c-3.123-3.308-5.319-5.635-7.702-8.164zm-52.988 14.428c8.589 4.972 16.979 7.06 25.941 6.574 9.101-0.489 18.214-1.087 27.319-1.039 29.791 0.157 58.621-5.456 86.91-14.215 7.828-2.424 14.992-6.368 20.157-14.529-2.409-1.916-4.504-3.578-5.819-4.624-4.489 4.187-7.361 8.818-11.376 10.245-12.263 4.352-24.827 8.045-37.525 10.884-9.711 2.17-19.811 2.581-29.716 3.903-23.65 3.159-47.349 3.507-71.11 1.486-1.546-0.13-3.185 0.852-4.781 1.315zm21.42-4.848c-4.812-3.959 0.192-10.395-6.318-13.091 2.779-1.217 4.701-2.058 6.471-2.831-0.389-3.63-0.746-6.973-1.093-10.234-5.769-3.488-7.13 3.604-11.016 5.274-0.702-3.332-1.259-5.969-1.905-9.028-4.081 2.914-7.319 5.226-10.232 7.306-5.065-3.873-1.082-10.51-6.079-13.289-4.551 5.707-8.796 11.03-13.719 17.204 3.183 2.177 6.211 4.254 9.838 6.738-1.726 2.297-3.414 4.549-5.242 6.988 4.713 4.52 9.745 4.908 15.336 2.133-0.594-2.092-1.033-3.631-2.101-7.392 4.536 2.121 7.279 3.048 9.513 4.673 0.665 0.481-0.103 2.932-0.215 4.481 5.111 0.325 9.938 0.635 16.762 1.068zm-98.071-19.885c4.011 8.979 11.877 8.811 19.343 10.85 0.637-3.051 1.164-5.569 1.741-8.333-2.826 0.956-5.356 4.721-7.933 0.343-3.513-5.965 5.242-4.676 5.175-9.166-6.816-8.292-13.889-16.744-26.029-17.764-1.098 1.92-1.808 3.821-3.083 5.203-1.179 1.281-2.96 1.998-4.477 2.965 0.233 0.624 0.467 1.244 0.7 1.868 3.403-0.347 6.805-0.699 10.809-1.105 0.024 6.536 4.174 9.3 11.9 9.651-3.81 2.568-5.989 4.035-8.146 5.488zm-6.187-7.948c-5.642-3.283-8.139-2.839-10.411 1.471-3.188 6.043-2.338 10.477 3.229 15.336 8.251 7.205 18.503 10.338 28.717 13.106 8.249 2.233 16.83 3.093 25.608 1.188-2.665-1.986-5.458-3.484-8.439-4.164-11.726-2.689-23.654-4.231-34.418-10.578-4.131-2.435-7.33-4.967-9.472-9.023-0.377-0.713-0.168-1.741-0.219-2.499 1.853-1.658 3.563-3.186 5.405-4.837zm238.28 21.451c-8.386-0.079-7.963 10.63-14.947 12.295 0.889 1.479 1.814 3.015 3.196 5.308-3.298-0.272-5.542-0.459-9.92-0.821 3.604 2.207 5.312 3.253 6.992 4.284-0.874 0.993-1.957 2.035-2.786 3.245-0.44 0.646-0.426 1.591-0.635 2.469 10.469-0.763 15.321-5.708 18.1-26.78zm-189.42-1.588c-1.507-3.175-2.542-5.356-3.576-7.537-2.792 1.726-5.58 3.451-8.172 5.054-1.205-0.688-2.476-1.644-3.907-2.058-0.308-0.086-1.881 2.032-1.646 2.704 0.436 1.232 1.647 2.872 2.768 3.078 8.303 1.523 16.664 2.733 26.312 4.247-1.587-3.918-2.719-6.72-4.124-10.189-3.251 1.997-5.449 3.345-7.655 4.701zm132.9-71.514c-0.766 0.325-1.535 0.65-2.297 0.975 2.151 3.772 1.004 8.845 6.106 12.165 1.486-1.572 2.76-2.917 3.933-4.153-2.891-3.358-5.319-6.175-7.742-8.987zm-78.635 37.043c-5.216 0.165-7.928 1.587-6.482 5.341 0.422 1.102 2.816 1.441 4.307 2.129 0.724-2.491 1.45-4.978 2.175-7.47zm-32.183 46.359c-0.118 0.628-0.235 1.255-0.351 1.882 2.226 0.654 4.454 1.312 7.628 2.241-0.472-2.723-0.704-4.056-1.025-5.908-2.418 0.691-4.336 1.236-6.252 1.785zm122.81-60.092c-2.342 0.306-4.673 0.609-7.007 0.912-0.139 0.758-0.272 1.512-0.415 2.271 2.271 1.061 4.542 2.122 7.422 3.466v-6.649zm-32.398 88.47c-2.354-2.984-4.026-5.109-6.518-8.272v10.626c2.511-0.905 4.326-1.562 6.518-2.354zm-3.16-14.092c-0.048 5.554-0.048 5.554 5.062 4.231-1.517-1.269-2.761-2.307-5.062-4.231zm-1.542-90.603c2.375 3.903 4.848 3.16 7.324 2.014 0.303-0.139 0.265-1.009 0.493-2.014h-7.817zm14.581 90.499c-0.366 0.116-0.721 0.127-0.911 0.31-1.226 1.191-2.42 2.425-3.623 3.643 0.5 0.283 1.359 0.899 1.457 0.799 0.963-1.023 1.841-2.137 2.655-3.283 0.269-0.382 0.281-0.947 0.422-1.469zm14.366-78.846c0.508 0.545 1.008 1.095 1.516 1.64 1.606-1.695 3.22-3.388 4.826-5.08-0.471-0.459-0.941-0.918-1.412-1.382-1.644 1.61-3.287 3.216-4.93 4.822zm-15.501 74.103c0.057-0.314 0.108-0.632 0.161-0.945h-6.765c-7e-3 0.313-0.015 0.631-0.021 0.945h6.625zm-180.58-104.81c-0.473 0.25-0.947 0.497-1.421 0.743 0.876 1.796 1.75 3.589 2.626 5.386 0.519-0.269 1.038-0.538 1.558-0.807-0.922-1.774-1.843-3.548-2.763-5.322zm73.527 137.15c-0.999-0.948-1.699-1.949-2.009-1.841-0.96 0.34-1.772 1.098-2.643 1.695 0.504 0.605 1.08 1.756 1.498 1.699 0.941-0.123 1.807-0.84 3.154-1.553zm60.15-2.518c1.161 2.376 1.845 3.78 2.794 5.715 2.977-3.713 2.644-5.319-2.794-5.715zm-9.156 4.105c-0.163-0.796-0.323-1.592-0.485-2.387-1.983 0.687-3.978 1.345-5.929 2.11-0.159 0.063-0.021 0.881-0.021 1.789 2.214-0.522 4.325-1.018 6.435-1.512zm20.088-6.387c-0.467 1.252-0.922 2.044-0.78 2.174 0.68 0.609 1.523 1.039 2.309 1.535-0.434-1.057-0.872-2.114-1.529-3.709zm-125.8-107.1c-0.668-0.325-1.328-0.646-1.989-0.967-0.032 0.534-0.245 1.154-0.041 1.572 0.194 0.396 0.827 0.579 1.266 0.852 0.22-0.415 0.437-0.834 0.764-1.457zm68.397 106.8c-0.863-0.657-1.419-1.408-2.024-1.453-0.719-0.052-1.483 0.505-2.23 0.796 0.637 0.725 1.16 1.669 1.958 2.072 0.353 0.176 1.261-0.746 2.296-1.415zm-8.735 4.747c0.562-0.665 1.012-1.199 1.462-1.733-0.643-0.485-1.32-1.389-1.917-1.341-0.599 0.053-1.115 1.058-1.667 1.644 0.621 0.418 1.242 0.84 2.122 1.43zm19.878-80.261c0.45 0.303 0.9 0.602 1.352 0.904 0.686-1.004 1.373-2.013 2.06-3.021-0.502-0.25-1.367-0.807-1.449-0.709-0.732 0.876-1.328 1.866-1.963 2.826zm-1.038 82.984c-0.975-0.434-1.694-1.023-2.334-0.948-0.573 0.067-1.061 0.87-1.585 1.348 0.784 0.575 1.52 1.267 2.394 1.629 0.169 0.07 0.869-1.14 1.525-2.029zm68.243 13.786c-0.201-0.522-0.262-1.255-0.639-1.505-0.332-0.217-1.02 0.104-1.554 0.19 0.235 0.676 0.475 1.355 0.71 2.031 0.494-0.238 0.986-0.473 1.483-0.716z" clip-rule="evenodd" fill-rule="evenodd"/>
 <path d="m128.66 65.616c0.226-1.453 1.162-3.369 0.564-4.292-4.966-7.664-2.071-16.086-2.461-24.128-0.226-4.661 3.429-6.144 7.419-3.343 2.418 1.696 4.495 3.873 6.157 5.337 3.529-1.95 6.351-4.049 9.519-5.14 6.12-2.114 8.374-0.052 7.53 6.327-0.151 1.143-0.553 2.252-1.005 4.03 5.668 0.949 10.897 1.826 16.124 2.7l0.017 0.015c-0.473 4.9 2.117 10.211-1.976 14.622l0.302 0.105c-3.819-3.62-1.621-11.093-9.136-13.581-0.834 2.768-2.237 5.184-2.123 7.526 0.205 4.284-1.388 6.312-5.53 6.645-0.852 0.067-2.401 0.28-2.424 0.531-0.581 6.614-6.305 4.28-10.693 7.212-0.667-7.466-1.207-13.543-1.761-19.75-3.479 1.333-6.092 2.334-9.713 3.724 3.076 2.652 5.265 4.535 6.667 5.741-0.717 4.124-1.344 7.728-1.972 11.328 2.737 2.118 5.223 4.691 4.984 6.977-0.499 4.748-5.259 4.564-9.411 5.091 1.427-2.129 2.854-4.262 4.66-6.958-4.086-2.479-0.2-9.072-5.997-11.014l0.259 0.295zm12.05-21.207c-1.86-1.745-3.677-3.544-5.608-5.21-0.585-0.5-1.483-0.639-2.757-1.154v7.235c3.271-0.374 5.909-0.676 8.546-0.979-0.091 10.391 0.222 10.824 10.174 13.726 0.807-6.35 1.604-12.643 2.413-19.004h-6.518c-1.882 2.345-0.248 8.093-6.25 5.386zm4.483 16.348c-0.7 0.067-1.399 0.134-2.097 0.201 0.157 1.353 0.314 2.705 0.469 4.06 0.768-0.22 2.187-0.433 2.189-0.657 9e-3 -1.203-0.338-2.402-0.561-3.604z" clip-rule="evenodd" fill-rule="evenodd"/>
 <path d="m93.152 184.25c0.192-2.2 0.387-4.399 0.663-7.545 3.924 0.74 7.089 1.506 10.301 1.909 12.057 1.501 24.109 3.873 36.196 4.097 21.573 0.4 43.169-0.604 64.757-0.791 2.675-0.026 5.356 1.355 9.569 2.498-3.959 1.722-6.229 2.686-8.479 3.698-4.986 2.244-5.012 3.656-0.844 8.362-2.812-1.599-5.625-3.197-8.456-4.777-4.99-4.119 3.369-2.375 2.031-5.076-3.981-0.893-6.588 0.247-7.138 5.409 1.939-0.194 3.635-0.362 5.33-0.534-0.164 0.258-0.448 0.508-0.471 0.776-0.238 3.242 4.169 6.11-0.037 9.905-2.812 2.536-4.231 6.615-6.611 10.559 6.716-1.154 14.037-1.773 20.965-3.769 9.26-2.667 18.186-6.479 27.314-9.621 2.494-0.859 5.21-1.083 7.824-1.599l-0.19-0.172c-4.183 5.815-10.988 7.056-17.013 9.472-24.091 9.663-49.32 10.179-74.72 8.617-7.283-0.448-14.541-1.438-21.786-2.368-11.438-1.472-20.189-8.288-28.233-15.643-3.367-3.077-4.667-8.396-6.977-12.657-0.963-1.778-2.183-3.07-4.004-0.77 2e-3 -3e-3 9e-3 0.02 9e-3 0.02zm98.782 11.213c-0.489-0.061-0.982-0.116-1.472-0.176-0.665 2.076-1.083 4.28-2.047 6.211-2.215 4.438-2.323 4.381 4.022 4.311-0.171-3.466-0.335-6.907-0.503-10.346z" clip-rule="evenodd" fill="none"/>
 <path d="m208.38 148.91c1.232 0.142 2.465 0.279 3.697 0.422l-0.056-0.057c-1.983 2.196-3.971 4.389-6.055 6.693-2.308-0.706-4.399-1.345-6.487-1.983-0.082 0.243-0.161 0.481-0.243 0.725 2.753 2.039 5.51 4.075 9.584 7.089-18.271 2.114-34.761 2.996-51.349 1.995-16.042-0.968-32.085-1.901-48.134-2.704-9.808-0.493-19.577-0.859-26.884-10.025 8.161-2.514 1.656-8.411 3.513-13.382 2.36 0.362 4.879 0.903 7.429 1.112 15.479 1.285 30.967 2.484 46.448 3.735 6.682 0.542 13.36 1.613 20.036 1.595 10.66-0.029 21.317-0.792 31.981-1.188 4.156-0.157 8.336-0.422 12.479-0.164 3.645 0.228 5.304 2.379 4.056 6.144-2.596-0.213-5.191-0.426-7.787-0.643 0.015 0.534 0.03 1.068 0.045 1.603 2.573-0.321 5.15-0.643 7.727-0.967z" clip-rule="evenodd" fill="none"/>
 <path d="m192.38 119.2c2.383 2.528 4.579 4.855 7.702 8.164h-33.432c4.5-1.875 7.125-2.965 10.566-4.399-4.719-8.721 3.915-14.073 5.637-21.346 2.387-0.213 5.554-0.493 8.811-0.784 0.567 1.558 1.158 3.186 1.845 5.076 6.006-0.889 9.749-3.839 10.241-9.823 0.382-4.617 2.405-5.797 6.914-4.161-0.982 2.495-1.883 4.789-2.782 7.085 0.433 0.448 0.866 0.896 1.299 1.345 2.286-1.513 4.572-3.025 6.847-4.534 0.045-8.643-10.648-5.599-11.601-13.902-2.761 3.522-4.404 5.618-6.877 8.777-0.911-3.425-1.471-5.543-2.08-7.847 2.615-2.144 5.166-4.239 8.094-6.641 1.095 1.315 2.163 2.6 3.526 4.247 4.011-2.738 10.442-0.792 12.964-6.727 1.834-4.314 3.439-8.729 4.811-12.229 3.746 0.31 7.183 0.59 11.104 0.911-2.872 6.798 5.942 10.365 4.093 17.581-1.994 2.155-4.056 4.785-8.672 3.829-4.777-0.994-7.635-0.366-8.759 6.592-1.013 6.26-7.22 11.68-11.508 18.021 1.846 1.636 4.026 3.574 6.26 5.558 3.474-0.553 4.841-7.32 9.831-3.388-3.189 11.922-10.343 18.992-25.186 16.378 4.646-1.161 7.627-1.908 10.607-2.655-0.041-0.526-0.078-1.057-0.115-1.588-3.093 0.169-6.182 0.337-10.055 0.546 1.3-1.883 2.495-3.619 4.201-6.092-4.717 0.662-8.93 1.255-14.286 2.006zm13.864-4.732c0.411-0.209 0.822-0.418 1.232-0.624-0.646-1.396-1.292-2.793-1.938-4.19-0.578 0.291-1.161 0.583-1.744 0.874 0.818 1.314 1.636 2.625 2.45 3.94z" clip-rule="evenodd" fill="none"/>
 <path d="m128.4 65.321c5.796 1.942 1.91 8.535 5.997 11.014-1.806 2.697-3.233 4.83-4.66 6.958 4.151-0.527 8.912-0.343 9.411-5.091 0.239-2.286-2.247-4.859-4.984-6.977 0.627-3.601 1.255-7.205 1.972-11.328-1.402-1.206-3.591-3.089-6.667-5.741 3.621-1.389 6.234-2.39 9.713-3.724 0.555 6.208 1.095 12.285 1.761 19.75 4.389-2.932 10.112-0.598 10.693-7.212 0.022-0.25 1.572-0.463 2.424-0.531 4.142-0.333 5.735-2.36 5.53-6.645-0.114-2.342 1.289-4.758 2.123-7.526 7.515 2.487 5.317 9.961 9.136 13.581-3.193 0.474-2.396 8-8.736 3.667 1.113 7.507-3.025 11.877-8.228 14.425-4.958 2.428-9.724 7.458-16.882 3.145-0.515 3.358-0.896 5.823-1.15 7.481-6.167-0.459-11.982-0.889-18.501-1.371 0.278-4.31 0.538-8.321 0.938-14.506-2.233 2.742-3.119 3.825-4.409 5.408-1.765-2.36-3.432-4.594-5.102-6.828-0.497 0.179-0.992 0.358-1.489 0.538 0.45 1.681 1.283 3.373 1.235 5.042-0.045 1.546-1.029 3.07-1.866 5.326h6.848c-0.676 3.189-1.335 6.305-1.958 9.248-3.135 0.818-6.403 1.673-9.901 2.588-1.978-2.42-4.088-5.005-6.568-8.041 3.871-5.827 4.717-12.09 0.829-17.532 2.413-3.193 4.607-5.681 6.311-8.471 1.707-2.798-1.382-7.298 3.171-9.961 1.462 6.23 2.784 11.858 4.407 18.772 4.129-3.164 6.876-5.266 10.4-7.967 0.562 3.082 0.964 5.281 1.427 7.821 3.482-0.259 4.687-3.389 6.775-5.312z" clip-rule="evenodd" fill="none"/>
 <path d="m139.39 133.63c1.597-0.463 3.235-1.445 4.781-1.314 23.762 2.021 47.46 1.673 71.11-1.486 9.905-1.322 20.005-1.733 29.716-3.903 12.698-2.839 25.263-6.532 37.525-10.884 4.015-1.427 6.887-6.058 11.376-10.245 1.315 1.046 3.41 2.708 5.819 4.624-5.165 8.161-12.329 12.105-20.157 14.529-28.289 8.759-57.119 14.372-86.91 14.215-9.105-0.048-18.219 0.55-27.319 1.039-8.962 0.485-17.352-1.603-25.941-6.575z" clip-rule="evenodd" fill="none"/>
 <path d="m160.81 128.78c-6.824-0.434-11.651-0.743-16.761-1.068 0.112-1.55 0.879-4 0.215-4.481-2.234-1.625-4.977-2.552-9.513-4.673 1.068 3.761 1.507 5.3 2.101 7.392-5.591 2.775-10.623 2.387-15.336-2.133 1.828-2.439 3.517-4.691 5.242-6.988-3.627-2.483-6.656-4.561-9.838-6.738 4.923-6.174 9.168-11.497 13.719-17.204 4.998 2.779 1.014 9.416 6.079 13.289 2.913-2.08 6.151-4.392 10.232-7.306 0.646 3.059 1.203 5.696 1.905 9.028 3.886-1.669 5.248-8.762 11.016-5.274 0.347 3.261 0.704 6.604 1.093 10.234-1.771 0.773-3.692 1.614-6.471 2.831 6.509 2.697 1.505 9.132 6.317 13.091zm-30.911-19.945c3.345 5.938 7.615 6.816 12.161 7.055 0.211 0.011 0.497-1.404 0.775-2.237-4.022-1.497-7.753-2.886-12.936-4.818z" clip-rule="evenodd" fill="none"/>
 <path d="m259.2 115.41c-1.641 6.536-7.807 5.378-12.222 6.902-3.368 1.166-7.182 0.968-10.704 1.782-4.624 1.064-6.939-0.714-7.687-6.368 6.577-6.301 13.678-13.069 20.736-19.874 8.949-8.624 18.025-17.125 26.75-25.973 5.144-5.218 11.261-8.729 17.671-11.933l-0.131-0.254c-2.38 3.585-4.273 7.642-7.217 10.678-10.925 11.261-22.2 22.178-33.33 33.245-1.271 1.266-2.771 2.472-3.571 4.011-1.666 3.227 0.396 6.547 4.139 7.082 1.853 0.269 3.716 0.489 5.572 0.728l-6e-3 -0.026zm-24.36 3.798c2.951-0.713 5.973-1.217 8.808-2.241 1.128-0.411 1.838-1.979 2.733-3.018-1.3-0.911-2.606-2.607-3.892-2.592-4.481 0.049-6.17 3.832-7.649 7.851z" clip-rule="evenodd" fill="none"/>
 <path d="m170.54 61.746c4.093-4.411 1.503-9.722 1.976-14.622 5.361-0.202 11.066 0.922 15.526-5.901v17.327c-4.445 7.507-8.116 11.459 5.953 12.587 2.544 7.788 1.263 9.584-6.185 10.484-4.896 0.59-9.424 1.487-13.542-2.458-0.807-0.773-3.365 0.086-5.052 0.471-3.098 0.713-6.148 1.636-10.447 2.801 4.534-10.943 14.734-8.004 21.689-12.016-4.677-1.416-4.677-1.416-10.591-0.213 0.222-2.76 0.447-5.61 0.673-8.46z" clip-rule="evenodd" fill="none"/>
 <path d="m62.739 108.89c2.157-1.453 4.336-2.92 8.146-5.487-7.726-0.351-11.875-3.115-11.9-9.651-4.004 0.407-7.406 0.758-10.809 1.105-0.233-0.624-0.467-1.244-0.7-1.868 1.517-0.967 3.298-1.685 4.477-2.965 1.275-1.382 1.985-3.283 3.083-5.203 12.141 1.02 19.213 9.472 26.029 17.764 0.067 4.49-8.688 3.201-5.175 9.166 2.577 4.378 5.107 0.613 7.933-0.343-0.577 2.764-1.104 5.281-1.741 8.333-7.466-2.04-15.332-1.872-19.343-10.851z" clip-rule="evenodd" fill="none"/>
 <path d="m56.552 100.94c-1.842 1.65-3.552 3.178-5.405 4.836 0.05 0.758-0.159 1.786 0.219 2.499 2.142 4.056 5.341 6.588 9.472 9.023 10.764 6.346 22.692 7.888 34.418 10.578 2.98 0.68 5.774 2.178 8.439 4.164-8.779 1.905-17.36 1.046-25.608-1.188-10.214-2.768-20.466-5.901-28.717-13.106-5.567-4.859-6.417-9.292-3.229-15.336 2.272-4.309 4.769-4.753 10.411-1.47z" clip-rule="evenodd" fill="none"/>
 <path d="m57.448 149.2c-0.811-0.112-2.069 0.07-2.366-0.377-5.074-7.713-6.938-16.509-9.657-26.41 8.251 3.787 15.08 6.924 22.978 10.551 0.47 3.701 1.061 8.344 1.718 13.524 1.647 0.481 4.538 1.326 7.57 2.211-4.334 5.633-9.223 0.972-13.765 1.046-2.222 0.037-4.448-0.201-6.672-0.317l0.194-0.228z" clip-rule="evenodd" fill="none"/>
 <path d="m57.254 149.43c2.319 1.367 4.698 2.645 6.949 4.12 3.954 2.6 11.756 1.408 9.825 10.151-0.175 0.792 4.125 2.569 7.659 4.673-4.74-1.173-8.284-2.051-12.833-3.175 3.989 6.454 11.044 5.367 15.682 8.571 0.172 2.712 0.34 5.338 0.517 8.128 2.912 0.844 5.505 1.595 8.1 2.349 1e-3 4e-3 -6e-3 -0.019-6e-3 -0.015-0.852 0.075-1.705 0.146-3.935 0.329 2.74 3.892 5.001 7.107 8.217 11.675-3.012-1.359-5.02-1.781-6.385-2.954-12.176-10.45-23.842-21.424-31.742-35.64-1.339-2.405-1.294-5.58-1.872-8.418 0.018-0.022-0.176 0.206-0.176 0.206z" clip-rule="evenodd" fill="none"/>
 <path d="m73.223 75.584c-0.358-0.803-0.715-1.602-1.074-2.405 0.327-0.299 0.652-0.601 0.977-0.9 12.774 13.166 25.545 26.328 38.867 40.062-5.194 1.643-8.511-0.994-11.483-3.522-4.604-3.914-8.514-8.68-13.278-12.359-6.564-5.068-10.186-12.045-14.01-18.993-1e-3 -0.628 1e-3 -1.255 1e-3 -1.883z" clip-rule="evenodd" fill="none"/>
 <path d="m330.31 27.037c4.653-2.82 4.653-2.82 10.294 1.789-8.562 15.631-22.149 24.363-38.434 29.633-0.463-0.601-0.923-1.203-1.386-1.8 3.537-2.476 7.142-4.859 10.597-7.447 3.81-2.857 7.525-5.853 11.152-8.942 0.373-0.317-0.164-1.696-0.276-2.584 8.337-1.67 10.233-4.18 8.053-10.649z" clip-rule="evenodd" fill="none"/>
 <path d="m257.66 85.038c-5.961 3.978-11.601 8.613-17.995 11.687-3.757 1.804-8.706 1.117-14.051 1.64 0.493-2.831 0.941-4.459 1.02-6.107 0.101-2.151-2.495-5.292 1.259-5.972 1.793-0.325 4.045 1.868 6.753 3.265 3.705-2.637 7.56-6.678 13.805-5.24 1.374 0.317 3.511-2.648 5.497-4.269 1.322 1.83 2.533 3.496 3.754 5.207 0.018 0.039-0.042-0.211-0.042-0.211z" clip-rule="evenodd" fill="none"/>
 <path d="m27.344 47.314c-4.256-4.564-9.007-8.77-12.628-13.79-3.649-5.065 0.047-10.794 6.411-11.108 7.67-0.377 12.779 4.03 17.43 9.21 0.512 0.571 0.347 2.715-0.174 3.033-0.848 0.52-2.346 0.43-3.401 0.082-4.629-1.513-9.197-3.204-14.268-4.187 3.626 5.39 6.112 10.771 6.486 16.968l0.144-0.208z" clip-rule="evenodd" fill="none"/>
 <path d="m246.07 197.76c-0.575-2.182-1.15-4.366-2.013-7.646 2.622 0.481 4.661 0.859 6.682 1.229 3.238-4.522 6.645-9.277 10.044-14.032l-0.262 0.295c1.986-1.501 5.756 0.188 6.861-4.321-2.675 0.867-4.785 1.55-6.896 2.23l0.34 0.295c0.329-1.651 0.131-4.276 1.076-4.788 5.169-2.798 10.622-5.08 16.386-7.037-8.251 13.707-16.397 27.403-32.409 33.604l0.191 0.171z" clip-rule="evenodd" fill="none"/>
 <path d="m268.53 115.71c-2.491-2.622-4.982-5.24-8.135-8.564 5.405-4.949 10.791-9.883 16.457-15.075 1.218 6.705 2.263 12.438 3.533 19.452-3.567 1.207-7.772 2.626-11.997 4.023-0.014-0.02 0.142 0.164 0.142 0.164z" clip-rule="evenodd" fill="none"/>
 <path d="m294.83 122.4c-2.779 21.072-7.631 26.018-18.1 26.779 0.209-0.878 0.194-1.822 0.635-2.469 0.829-1.21 1.912-2.252 2.786-3.245-1.681-1.031-3.388-2.077-6.992-4.284 4.378 0.362 6.622 0.549 9.92 0.821-1.382-2.293-2.308-3.828-3.196-5.308 6.984-1.665 6.561-12.374 14.947-12.294z" clip-rule="evenodd" fill="none"/>
 <path d="m105.41 120.81c2.206-1.355 4.403-2.704 7.655-4.702 1.404 3.47 2.536 6.271 4.124 10.189-9.647-1.514-18.008-2.724-26.312-4.247-1.12-0.206-2.332-1.845-2.768-3.078-0.235-0.672 1.337-2.79 1.646-2.704 1.431 0.415 2.702 1.371 3.907 2.058 2.592-1.603 5.38-3.328 8.172-5.054 1.034 2.182 2.069 4.363 3.576 7.538z" clip-rule="evenodd" fill="none"/>
 <path d="m73.223 75.584c0 0.627-2e-3 1.255-2e-3 1.882-0.952 0.747-2.506 2.297-2.758 2.11-1.892-1.416-3.673-3.048-5.21-4.848-3.496-4.102-7.162-7.903-12.21-10.174-0.807-0.362-1.088-1.89-1.615-2.88l-0.17 0.209h3.694c-1.388-4.176-2.547-7.661-3.705-11.146 1.565 0.979 3.13 1.957 4.695 2.932l0.015-0.026c1.943 10.315 8.685 16.851 17.266 21.941z" clip-rule="evenodd" fill="none"/>
 <path d="m27.2 47.523c3.208-3.171 5.181-0.982 7.054 1.628 2.898 2.211 6.358 6.738 8.588 6.197 6.629-1.606 6.669 3.111 8.415 6.536l0.17-0.209c-7.41 1.404-12.004-3.948-17.241-7.462-2.637-1.771-4.577-4.579-6.837-6.91-5e-3 0.011-0.149 0.22-0.149 0.22z" clip-rule="evenodd" fill="none"/>
 <path d="m51.257 61.885c-1.746-3.425-1.786-8.143-8.415-6.536-2.23 0.541-5.69-3.985-8.588-6.197 2.073-1.273 4.146-2.547 6.219-3.821 0.471 2.125 0.941 4.25 1.412 6.375 0.495-0.097 0.99-0.19 1.483-0.284v-3.993l8.067 3.474-0.188-0.165c1.158 3.485 2.317 6.97 3.705 11.146-1.491 1e-3 -2.593 1e-3 -3.695 1e-3z" clip-rule="evenodd" fill-rule="evenodd"/>
 <path d="m300.02 44.154c4.382-3.051 8.64-6.301 13.188-9.072 2.442-1.486 5.39-2.144 8.108-3.174 0.198 1.919 0.393 3.835 0.594 5.755-1.486 0.161-3.869-0.205-4.321 0.564-3.245 5.532-10.08 3.16-14.189 6.693-0.522 0.448-2.233-0.486-3.391-0.777l0.011 0.011z" clip-rule="evenodd" fill="none"/>
 <path d="m321.91 37.663c-0.201-1.92-0.396-3.836-0.594-5.755-0.078-0.314-0.153-0.631-0.228-0.945 3.152-1.363 6.309-2.727 9.465-4.09l-0.239 0.164c2.181 6.469 0.284 8.979-8.053 10.648l-0.351-0.022z" clip-rule="evenodd" fill-rule="evenodd"/>
 <path d="m238.31 49.294c2.424 2.812 4.852 5.629 7.742 8.986-1.173 1.236-2.446 2.581-3.933 4.153-5.103-3.32-3.955-8.393-6.106-12.165 0.761-0.324 1.531-0.649 2.297-0.974z" clip-rule="evenodd" fill="none"/>
 <path d="m159.67 86.337c-0.725 2.491-1.451 4.979-2.176 7.47-1.49-0.688-3.884-1.027-4.307-2.129-1.445-3.753 1.267-5.176 6.483-5.341z" clip-rule="evenodd" fill="none"/>
 <path d="m127.49 132.7c1.916-0.549 3.834-1.095 6.252-1.785 0.321 1.853 0.553 3.186 1.025 5.908-3.174-0.93-5.402-1.587-7.628-2.241 0.116-0.627 0.234-1.254 0.351-1.882z" clip-rule="evenodd" fill="none"/>
 <path d="m250.3 72.604v6.648c-2.88-1.345-5.15-2.406-7.422-3.466 0.143-0.758 0.276-1.513 0.415-2.271 2.334-0.302 4.665-0.605 7.007-0.911z" clip-rule="evenodd" fill="none"/>
 <path d="m217.9 161.07c-2.192 0.792-4.008 1.449-6.518 2.354v-10.626c2.492 3.163 4.165 5.288 6.518 8.272z" clip-rule="evenodd" fill="none"/>
 <path d="m300.01 44.144c3.085 5.714-1.121 7.724-6.01 9.315 2.006-3.1 4.015-6.2 6.021-9.304l-0.011-0.011z" clip-rule="evenodd" fill="none"/>
 <path d="m214.74 146.98c2.301 1.924 3.545 2.962 5.062 4.231-5.11 1.323-5.11 1.323-5.062-4.231z" clip-rule="evenodd" fill="none"/>
 <path d="m213.2 56.379h7.817c-0.229 1.005-0.19 1.875-0.493 2.014-2.476 1.146-4.949 1.889-7.324-2.014z" clip-rule="evenodd" fill="none"/>
 <path d="m212.08 149.34c-0.53-2.312-1.061-4.624-1.591-6.933 0.526-0.262 1.054-0.522 1.576-0.784 1.464 1.158 2.925 2.312 4.419 3.492-1.719 1.576-3.104 2.85-4.479 4.146 0.02 0.022 0.075 0.079 0.075 0.079z" clip-rule="evenodd" fill="none"/>
 <path d="m260.78 177.31c-2.779 0.68-5.559 1.359-9.741 2.379 3.003-5.131 6.888-3.066 9.785-3.88l-0.34-0.295c0.012 0.698 0.022 1.393 0.034 2.091l0.262-0.295z" clip-rule="evenodd" fill="none"/>
 <path d="m227.78 146.88c-0.142 0.522-0.153 1.087-0.422 1.468-0.814 1.146-1.692 2.26-2.655 3.283-0.098 0.101-0.957-0.516-1.457-0.799 1.203-1.218 2.397-2.451 3.623-3.643 0.191-0.182 0.545-0.193 0.911-0.309z" clip-rule="evenodd" fill="none"/>
 <path d="m51.435 50.904l-8.067-3.474c-0.374-0.568-0.747-1.135-1.121-1.7 4.433-0.709 6.864 2.137 9.188 5.174z" clip-rule="evenodd" fill="none"/>
 <path d="m242.14 68.032c1.644-1.606 3.286-3.212 4.93-4.822 0.471 0.463 0.941 0.922 1.412 1.382-1.606 1.692-3.22 3.384-4.826 5.08-0.509-0.545-1.009-1.094-1.516-1.64z" clip-rule="evenodd" fill="none"/>
 <path d="m226.64 142.14h-6.625c7e-3 -0.314 0.015-0.632 0.021-0.945h6.765c-0.053 0.313-0.105 0.63-0.161 0.945z" clip-rule="evenodd" fill="none"/>
 <path d="m330.55 26.873c-3.156 1.363-6.312 2.727-9.465 4.09 2.622-2.604 5.019-5.711 9.465-4.09z" clip-rule="evenodd" fill="none"/>
 <path d="m46.062 37.327c0.92 1.774 1.841 3.548 2.762 5.322-0.52 0.269-1.039 0.538-1.558 0.807-0.876-1.796-1.75-3.589-2.626-5.386 0.475-0.246 0.949-0.493 1.422-0.743z" clip-rule="evenodd" fill="none"/>
 <path d="m42.247 45.73c0.374 0.564 0.747 1.132 1.121 1.7v3.993c-0.493 0.093-0.988 0.187-1.483 0.284-0.471-2.125-0.941-4.25-1.412-6.375 0.577 0.189 1.169 0.324 1.774 0.398z" clip-rule="evenodd" fill="none"/>
 <path d="m119.59 174.48c-1.347 0.714-2.213 1.431-3.154 1.554-0.418 0.057-0.993-1.094-1.498-1.699 0.87-0.598 1.683-1.355 2.643-1.695 0.31-0.11 1.01 0.891 2.009 1.84z" clip-rule="evenodd" fill="none"/>
 <path d="m179.74 171.96c5.438 0.396 5.771 2.002 2.794 5.715-0.949-1.935-1.633-3.339-2.794-5.715z" clip-rule="evenodd" fill="none"/>
 <path d="m170.58 176.06c-2.11 0.493-4.22 0.989-6.435 1.513 0-0.908-0.139-1.726 0.021-1.789 1.951-0.766 3.946-1.424 5.929-2.11 0.162 0.795 0.322 1.591 0.485 2.386z" clip-rule="evenodd" fill="none"/>
 <path d="m55.941 53.671c-0.469-1.868-0.939-3.739-1.477-5.883 5.406 1.337 0.907 3.997 1.494 5.853-2e-3 4e-3 -0.017 0.03-0.017 0.03z" clip-rule="evenodd" fill="none"/>
 <path d="m190.67 169.68c0.657 1.596 1.095 2.652 1.528 3.709-0.785-0.496-1.629-0.926-2.309-1.535-0.141-0.13 0.314-0.922 0.781-2.174z" clip-rule="evenodd" fill="none"/>
 <path d="m293.75 59.946c0.646-1.158 1.292-2.316 2.737-4.904 0.665 2.988 0.989 4.456 1.647 7.403-2.357-1.434-3.44-2.091-4.52-2.752 5e-3 -1e-3 0.136 0.253 0.136 0.253z" clip-rule="evenodd" fill="none"/>
 <path d="m64.868 62.572c-0.327 0.624-0.543 1.042-0.762 1.457-0.44-0.272-1.074-0.456-1.268-0.852-0.204-0.418 9e-3 -1.038 0.041-1.572 0.661 0.321 1.32 0.642 1.989 0.967z" clip-rule="evenodd" fill="none"/>
 <path d="m259.21 115.44c3.101 0.079 6.192 0.153 9.308 0.25 0.015 0.019-0.142-0.165-0.127-0.146-3.052-0.026-6.118-0.075-9.188-0.127 0-3e-3 7e-3 0.023 7e-3 0.023z" clip-rule="evenodd" fill="none"/>
 <path d="m133.26 169.37c-1.035 0.669-1.942 1.591-2.297 1.415-0.798-0.403-1.32-1.348-1.958-2.072 0.747-0.291 1.511-0.848 2.23-0.796 0.605 0.045 1.162 0.796 2.025 1.453z" clip-rule="evenodd" fill="none"/>
 <path d="m124.53 174.12c-0.88-0.59-1.501-1.012-2.122-1.431 0.553-0.586 1.068-1.591 1.667-1.644 0.596-0.048 1.274 0.855 1.917 1.341-0.45 0.535-0.9 1.069-1.462 1.734z" clip-rule="evenodd" fill="none"/>
 <path d="m144.41 93.856c0.635-0.96 1.231-1.95 1.963-2.827 0.082-0.097 0.947 0.459 1.449 0.709-0.687 1.009-1.375 2.017-2.06 3.021-0.452-0.301-0.902-0.6-1.352-0.903z" clip-rule="evenodd" fill="none"/>
 <path d="m143.37 176.84c-0.656 0.889-1.356 2.1-1.526 2.028-0.874-0.362-1.61-1.054-2.394-1.629 0.525-0.478 1.012-1.28 1.585-1.348 0.641-0.075 1.36 0.515 2.335 0.949z" clip-rule="evenodd" fill="none"/>
 <path d="m211.61 190.63c-0.497 0.239-0.989 0.474-1.482 0.713-0.235-0.676-0.475-1.355-0.71-2.031 0.534-0.086 1.222-0.407 1.554-0.19 0.377 0.249 0.437 0.982 0.638 1.508z" clip-rule="evenodd" fill="none"/>
 <path d="m140.79 44.356c5.915 2.76 4.28-2.988 6.163-5.334h6.518c-0.809 6.361-1.606 12.654-2.413 19.004-9.952-2.902-10.266-3.335-10.174-13.726l-0.094 0.056z" clip-rule="evenodd" fill="none"/>
 <path d="m140.89 44.3c-2.637 0.302-5.275 0.605-8.546 0.979v-7.235c1.274 0.516 2.172 0.654 2.757 1.154 1.931 1.666 3.748 3.466 5.653 5.184 0.042-0.026 0.136-0.082 0.136-0.082z" clip-rule="evenodd" fill="none"/>
 <path d="m145.19 60.757c0.222 1.202 0.569 2.401 0.561 3.604-2e-3 0.224-1.421 0.437-2.189 0.657-0.155-1.355-0.312-2.708-0.469-4.06 0.699-0.067 1.397-0.134 2.097-0.201z" clip-rule="evenodd" fill="none"/>
 <path d="m191.93 195.47c0.168 3.439 0.332 6.88 0.504 10.346-6.346 0.07-6.237 0.127-4.022-4.311 0.964-1.931 1.382-4.135 2.047-6.211 0.488 0.06 0.981 0.115 1.471 0.176z" clip-rule="evenodd" fill-rule="evenodd"/>
 <path d="m197.08 191.5c-1.695 0.172-3.391 0.34-5.33 0.534 0.55-5.162 3.156-6.302 7.138-5.409 1.338 2.701-7.021 0.957-2.031 5.076 0.018-0.018 0.223-0.201 0.223-0.201z" clip-rule="evenodd" fill-rule="evenodd"/>
 <path d="m208.38 148.91c-2.577 0.324-5.154 0.646-7.728 0.967-0.015-0.534-0.03-1.068-0.045-1.603 2.596 0.217 5.191 0.43 7.787 0.643l-0.014-7e-3z" clip-rule="evenodd" fill-rule="evenodd"/>
 <path d="m206.24 114.47c-0.814-1.315-1.632-2.626-2.45-3.94 0.583-0.292 1.166-0.583 1.744-0.874 0.646 1.397 1.293 2.794 1.938 4.19-0.41 0.205-0.821 0.415-1.232 0.624z" clip-rule="evenodd" fill-rule="evenodd"/>
 <path d="m129.9 108.83c5.182 1.931 8.914 3.32 12.936 4.818-0.278 0.833-0.564 2.249-0.775 2.237-4.545-0.238-8.816-1.116-12.161-7.055z" clip-rule="evenodd" fill-rule="evenodd"/>
 <path d="m234.84 119.21c1.479-4.019 3.168-7.802 7.649-7.851 1.285-0.015 2.592 1.681 3.892 2.592-0.896 1.039-1.605 2.607-2.733 3.018-2.836 1.024-5.857 1.528-8.808 2.241z" clip-rule="evenodd" fill-rule="evenodd"/>
 <path d="m260.52 177.6c-0.012-0.698-0.022-1.393-0.034-2.091 2.11-0.681 4.221-1.363 6.896-2.23-1.107 4.508-4.876 2.82-6.862 4.321z" clip-rule="evenodd" fill-rule="evenodd"/>
</svg>
